<mxfile host="Electron" modified="2024-07-24T10:39:56.989Z" agent="Mozilla/5.0 (X11; Linux x86_64) AppleWebKit/537.36 (KHTML, like Gecko) draw.io/24.6.4 Chrome/124.0.6367.207 Electron/30.0.6 Safari/537.36" etag="mvvySYpf0NTN3r7DJ0kp" version="24.6.4" type="device" pages="8">
  <diagram name="Page-1" id="Nnm01umsAebq1uJYBWrh">
    <mxGraphModel dx="1566" dy="1254" grid="1" gridSize="10" guides="1" tooltips="1" connect="1" arrows="1" fold="1" page="1" pageScale="1" pageWidth="827" pageHeight="1169" math="1" shadow="0">
      <root>
        <mxCell id="0" />
        <mxCell id="1" parent="0" />
        <mxCell id="beA1FBHMkHPFVnRssygu-1" style="rounded=1;orthogonalLoop=1;jettySize=auto;html=1;exitX=0.67;exitY=0;exitDx=0;exitDy=0;exitPerimeter=0;strokeWidth=2;endArrow=classic;endFill=1;curved=0;jumpStyle=gap;entryX=0.67;entryY=0;entryDx=0;entryDy=0;entryPerimeter=0;" edge="1" parent="1" target="beA1FBHMkHPFVnRssygu-4">
          <mxGeometry relative="1" as="geometry">
            <Array as="points" />
            <mxPoint x="195" y="100" as="sourcePoint" />
          </mxGeometry>
        </mxCell>
        <mxCell id="beA1FBHMkHPFVnRssygu-2" style="rounded=1;orthogonalLoop=1;jettySize=auto;html=1;strokeWidth=2;endArrow=classic;endFill=1;curved=0;jumpStyle=gap;exitX=0.33;exitY=0;exitDx=0;exitDy=0;exitPerimeter=0;entryX=0.33;entryY=0;entryDx=0;entryDy=0;entryPerimeter=0;" edge="1" parent="1" target="beA1FBHMkHPFVnRssygu-4">
          <mxGeometry relative="1" as="geometry">
            <mxPoint x="180" y="195" as="targetPoint" />
            <mxPoint x="155" y="100" as="sourcePoint" />
            <Array as="points" />
          </mxGeometry>
        </mxCell>
        <mxCell id="beA1FBHMkHPFVnRssygu-3" value="" style="rounded=1;orthogonalLoop=1;jettySize=auto;html=1;strokeWidth=2;endArrow=classic;endFill=1;curved=0;jumpStyle=gap;" edge="1" parent="1" source="beA1FBHMkHPFVnRssygu-4">
          <mxGeometry relative="1" as="geometry">
            <mxPoint x="190" y="200" as="targetPoint" />
            <mxPoint x="205" y="100" as="sourcePoint" />
            <Array as="points" />
          </mxGeometry>
        </mxCell>
        <mxCell id="beA1FBHMkHPFVnRssygu-4" value="" style="verticalLabelPosition=bottom;verticalAlign=top;html=1;shape=mxgraph.basic.half_circle;fontFamily=Helvetica;fontSize=11;labelBackgroundColor=default;fillColor=#e1d5e7;strokeColor=#9673a6;flipV=0;points=[[0.33,0,0,0,0],[0.5,1,0,0,0],[0.67,0,0,0,0]];" vertex="1" parent="1">
          <mxGeometry x="155" y="150" width="40" height="20" as="geometry" />
        </mxCell>
        <mxCell id="beA1FBHMkHPFVnRssygu-5" style="rounded=1;orthogonalLoop=1;jettySize=auto;html=1;strokeWidth=2;endArrow=classic;endFill=1;curved=0;jumpStyle=gap;exitX=0.67;exitY=0;exitDx=0;exitDy=0;exitPerimeter=0;entryX=0.67;entryY=0;entryDx=0;entryDy=0;entryPerimeter=0;" edge="1" parent="1" target="beA1FBHMkHPFVnRssygu-6">
          <mxGeometry relative="1" as="geometry">
            <mxPoint x="226" y="255" as="targetPoint" />
            <Array as="points" />
            <mxPoint x="275" y="100" as="sourcePoint" />
          </mxGeometry>
        </mxCell>
        <mxCell id="beA1FBHMkHPFVnRssygu-6" value="" style="verticalLabelPosition=bottom;verticalAlign=top;html=1;shape=mxgraph.basic.half_circle;fontFamily=Helvetica;fontSize=11;labelBackgroundColor=default;fillColor=#e1d5e7;strokeColor=#9673a6;flipV=0;points=[[0.33,0,0,0,0],[0.5,1,0,0,0],[0.67,0,0,0,0]];" vertex="1" parent="1">
          <mxGeometry x="201" y="270" width="40" height="20" as="geometry" />
        </mxCell>
        <mxCell id="beA1FBHMkHPFVnRssygu-7" value="" style="rounded=1;orthogonalLoop=1;jettySize=auto;html=1;strokeWidth=2;endArrow=classic;endFill=1;curved=0;jumpStyle=gap;exitX=0.33;exitY=0;exitDx=0;exitDy=0;exitPerimeter=0;entryX=0.33;entryY=0;entryDx=0;entryDy=0;entryPerimeter=0;" edge="1" parent="1" target="beA1FBHMkHPFVnRssygu-6">
          <mxGeometry relative="1" as="geometry">
            <mxPoint x="214" y="270" as="targetPoint" />
            <mxPoint x="200" y="230" as="sourcePoint" />
            <Array as="points" />
          </mxGeometry>
        </mxCell>
        <mxCell id="beA1FBHMkHPFVnRssygu-8" value="$$\cdots$$" style="text;html=1;align=center;verticalAlign=middle;resizable=0;points=[];autosize=1;strokeColor=none;fillColor=none;" vertex="1" parent="1">
          <mxGeometry x="155" y="200" width="80" height="30" as="geometry" />
        </mxCell>
        <mxCell id="beA1FBHMkHPFVnRssygu-9" value="$$\cdots$$" style="text;html=1;align=center;verticalAlign=middle;resizable=0;points=[];autosize=1;strokeColor=none;fillColor=none;" vertex="1" parent="1">
          <mxGeometry x="185" y="120" width="80" height="30" as="geometry" />
        </mxCell>
        <mxCell id="beA1FBHMkHPFVnRssygu-10" style="edgeStyle=orthogonalEdgeStyle;rounded=1;orthogonalLoop=1;jettySize=auto;html=1;exitX=0.5;exitY=1;exitDx=0;exitDy=0;exitPerimeter=0;entryX=0.5;entryY=1;entryDx=0;entryDy=0;entryPerimeter=0;strokeColor=default;strokeWidth=2;align=center;verticalAlign=middle;fontFamily=Helvetica;fontSize=11;fontColor=default;labelBackgroundColor=default;jumpStyle=gap;endArrow=classic;endFill=1;curved=0;" edge="1" parent="1" source="beA1FBHMkHPFVnRssygu-6" target="beA1FBHMkHPFVnRssygu-16">
          <mxGeometry relative="1" as="geometry" />
        </mxCell>
        <mxCell id="beA1FBHMkHPFVnRssygu-11" style="rounded=1;orthogonalLoop=1;jettySize=auto;html=1;exitX=0.67;exitY=0;exitDx=0;exitDy=0;exitPerimeter=0;strokeWidth=2;endArrow=classic;endFill=1;curved=0;jumpStyle=gap;" edge="1" parent="1" source="beA1FBHMkHPFVnRssygu-14">
          <mxGeometry relative="1" as="geometry">
            <mxPoint x="195" y="520" as="targetPoint" />
            <Array as="points" />
          </mxGeometry>
        </mxCell>
        <mxCell id="beA1FBHMkHPFVnRssygu-12" style="rounded=1;orthogonalLoop=1;jettySize=auto;html=1;strokeWidth=2;endArrow=classic;endFill=1;curved=0;jumpStyle=gap;exitX=0.33;exitY=0;exitDx=0;exitDy=0;exitPerimeter=0;" edge="1" parent="1" source="beA1FBHMkHPFVnRssygu-14">
          <mxGeometry relative="1" as="geometry">
            <mxPoint x="130" y="100" as="targetPoint" />
            <mxPoint x="180" y="425" as="sourcePoint" />
            <Array as="points">
              <mxPoint x="155" y="520" />
              <mxPoint x="130" y="520" />
            </Array>
          </mxGeometry>
        </mxCell>
        <mxCell id="beA1FBHMkHPFVnRssygu-13" value="" style="rounded=1;orthogonalLoop=1;jettySize=auto;html=1;strokeWidth=2;endArrow=classic;endFill=1;curved=0;jumpStyle=gap;" edge="1" parent="1" target="beA1FBHMkHPFVnRssygu-14">
          <mxGeometry relative="1" as="geometry">
            <mxPoint x="205" y="520" as="targetPoint" />
            <mxPoint x="190" y="420" as="sourcePoint" />
            <Array as="points" />
          </mxGeometry>
        </mxCell>
        <mxCell id="beA1FBHMkHPFVnRssygu-14" value="" style="verticalLabelPosition=bottom;verticalAlign=top;html=1;shape=mxgraph.basic.half_circle;fontFamily=Helvetica;fontSize=11;labelBackgroundColor=default;fillColor=#e1d5e7;strokeColor=#9673a6;flipV=1;points=[[0.33,0,0,0,0],[0.5,1,0,0,0],[0.67,0,0,0,0]];" vertex="1" parent="1">
          <mxGeometry x="155" y="450" width="40" height="20" as="geometry" />
        </mxCell>
        <mxCell id="beA1FBHMkHPFVnRssygu-15" style="rounded=1;orthogonalLoop=1;jettySize=auto;html=1;strokeWidth=2;endArrow=classic;endFill=1;curved=0;jumpStyle=gap;exitX=0.67;exitY=0;exitDx=0;exitDy=0;exitPerimeter=0;" edge="1" parent="1" source="beA1FBHMkHPFVnRssygu-16">
          <mxGeometry relative="1" as="geometry">
            <mxPoint x="275" y="520" as="targetPoint" />
            <Array as="points" />
            <mxPoint x="226" y="365" as="sourcePoint" />
          </mxGeometry>
        </mxCell>
        <mxCell id="beA1FBHMkHPFVnRssygu-16" value="" style="verticalLabelPosition=bottom;verticalAlign=top;html=1;shape=mxgraph.basic.half_circle;fontFamily=Helvetica;fontSize=11;labelBackgroundColor=default;fillColor=#e1d5e7;strokeColor=#9673a6;flipV=1;points=[[0.33,0,0,0,0],[0.5,1,0,0,0],[0.67,0,0,0,0]];" vertex="1" parent="1">
          <mxGeometry x="201" y="330" width="40" height="20" as="geometry" />
        </mxCell>
        <mxCell id="beA1FBHMkHPFVnRssygu-17" value="" style="rounded=1;orthogonalLoop=1;jettySize=auto;html=1;strokeWidth=2;endArrow=classic;endFill=1;curved=0;jumpStyle=gap;exitX=0.33;exitY=0;exitDx=0;exitDy=0;exitPerimeter=0;" edge="1" parent="1" source="beA1FBHMkHPFVnRssygu-16">
          <mxGeometry relative="1" as="geometry">
            <mxPoint x="200" y="390" as="targetPoint" />
            <mxPoint x="214" y="350" as="sourcePoint" />
            <Array as="points" />
          </mxGeometry>
        </mxCell>
        <mxCell id="beA1FBHMkHPFVnRssygu-18" value="$$\cdots$$" style="text;html=1;align=center;verticalAlign=middle;resizable=0;points=[];autosize=1;strokeColor=none;fillColor=none;" vertex="1" parent="1">
          <mxGeometry x="155" y="390" width="80" height="30" as="geometry" />
        </mxCell>
        <mxCell id="beA1FBHMkHPFVnRssygu-19" value="$$\cdots$$" style="text;html=1;align=center;verticalAlign=middle;resizable=0;points=[];autosize=1;strokeColor=none;fillColor=none;" vertex="1" parent="1">
          <mxGeometry x="185" y="470" width="80" height="30" as="geometry" />
        </mxCell>
      </root>
    </mxGraphModel>
  </diagram>
  <diagram id="RMGOAqQSc2qqxp2bUvkO" name="Page-2">
    <mxGraphModel dx="1566" dy="1254" grid="1" gridSize="10" guides="1" tooltips="1" connect="1" arrows="1" fold="1" page="1" pageScale="1" pageWidth="827" pageHeight="1169" math="1" shadow="0">
      <root>
        <mxCell id="0" />
        <mxCell id="1" parent="0" />
        <mxCell id="yk04Y9bM9WyDjJhCQa04-1" style="rounded=1;orthogonalLoop=1;jettySize=auto;html=1;exitX=0.67;exitY=0;exitDx=0;exitDy=0;exitPerimeter=0;strokeWidth=2;endArrow=classic;endFill=1;curved=0;jumpStyle=gap;entryX=0.67;entryY=0;entryDx=0;entryDy=0;entryPerimeter=0;" edge="1" parent="1" target="yk04Y9bM9WyDjJhCQa04-4">
          <mxGeometry relative="1" as="geometry">
            <Array as="points" />
            <mxPoint x="195" y="70" as="sourcePoint" />
          </mxGeometry>
        </mxCell>
        <mxCell id="yk04Y9bM9WyDjJhCQa04-2" style="rounded=1;orthogonalLoop=1;jettySize=auto;html=1;strokeWidth=2;endArrow=classic;endFill=1;curved=0;jumpStyle=gap;exitX=0.33;exitY=0;exitDx=0;exitDy=0;exitPerimeter=0;entryX=0.33;entryY=0;entryDx=0;entryDy=0;entryPerimeter=0;" edge="1" parent="1" target="yk04Y9bM9WyDjJhCQa04-4">
          <mxGeometry relative="1" as="geometry">
            <mxPoint x="180" y="165" as="targetPoint" />
            <mxPoint x="155" y="70" as="sourcePoint" />
            <Array as="points" />
          </mxGeometry>
        </mxCell>
        <mxCell id="yk04Y9bM9WyDjJhCQa04-3" value="" style="rounded=1;orthogonalLoop=1;jettySize=auto;html=1;strokeWidth=2;endArrow=classic;endFill=1;curved=0;jumpStyle=gap;" edge="1" parent="1" source="yk04Y9bM9WyDjJhCQa04-4">
          <mxGeometry relative="1" as="geometry">
            <mxPoint x="190" y="170" as="targetPoint" />
            <mxPoint x="205" y="70" as="sourcePoint" />
            <Array as="points" />
          </mxGeometry>
        </mxCell>
        <mxCell id="yk04Y9bM9WyDjJhCQa04-4" value="" style="verticalLabelPosition=bottom;verticalAlign=top;html=1;shape=mxgraph.basic.half_circle;fontFamily=Helvetica;fontSize=11;labelBackgroundColor=default;fillColor=#e1d5e7;strokeColor=#9673a6;flipV=0;points=[[0.33,0,0,0,0],[0.5,1,0,0,0],[0.67,0,0,0,0]];" vertex="1" parent="1">
          <mxGeometry x="155" y="120" width="40" height="20" as="geometry" />
        </mxCell>
        <mxCell id="yk04Y9bM9WyDjJhCQa04-5" style="rounded=1;orthogonalLoop=1;jettySize=auto;html=1;strokeWidth=2;endArrow=classic;endFill=1;curved=0;jumpStyle=gap;exitX=0.67;exitY=0;exitDx=0;exitDy=0;exitPerimeter=0;entryX=0.67;entryY=0;entryDx=0;entryDy=0;entryPerimeter=0;" edge="1" parent="1" target="yk04Y9bM9WyDjJhCQa04-6">
          <mxGeometry relative="1" as="geometry">
            <mxPoint x="226" y="225" as="targetPoint" />
            <Array as="points" />
            <mxPoint x="275" y="70" as="sourcePoint" />
          </mxGeometry>
        </mxCell>
        <mxCell id="yk04Y9bM9WyDjJhCQa04-6" value="" style="verticalLabelPosition=bottom;verticalAlign=top;html=1;shape=mxgraph.basic.half_circle;fontFamily=Helvetica;fontSize=11;labelBackgroundColor=default;fillColor=#e1d5e7;strokeColor=#9673a6;flipV=0;points=[[0.33,0,0,0,0],[0.5,1,0,0,0],[0.67,0,0,0,0]];" vertex="1" parent="1">
          <mxGeometry x="201" y="240" width="40" height="20" as="geometry" />
        </mxCell>
        <mxCell id="yk04Y9bM9WyDjJhCQa04-7" value="" style="rounded=1;orthogonalLoop=1;jettySize=auto;html=1;strokeWidth=2;endArrow=classic;endFill=1;curved=0;jumpStyle=gap;exitX=0.33;exitY=0;exitDx=0;exitDy=0;exitPerimeter=0;entryX=0.33;entryY=0;entryDx=0;entryDy=0;entryPerimeter=0;" edge="1" parent="1" target="yk04Y9bM9WyDjJhCQa04-6">
          <mxGeometry relative="1" as="geometry">
            <mxPoint x="214" y="240" as="targetPoint" />
            <mxPoint x="200" y="200" as="sourcePoint" />
            <Array as="points" />
          </mxGeometry>
        </mxCell>
        <mxCell id="yk04Y9bM9WyDjJhCQa04-8" value="$$\cdots$$" style="text;html=1;align=center;verticalAlign=middle;resizable=0;points=[];autosize=1;strokeColor=none;fillColor=none;" vertex="1" parent="1">
          <mxGeometry x="155" y="170" width="80" height="30" as="geometry" />
        </mxCell>
        <mxCell id="yk04Y9bM9WyDjJhCQa04-9" value="$$\cdots$$" style="text;html=1;align=center;verticalAlign=middle;resizable=0;points=[];autosize=1;strokeColor=none;fillColor=none;" vertex="1" parent="1">
          <mxGeometry x="185" y="90" width="80" height="30" as="geometry" />
        </mxCell>
        <mxCell id="yk04Y9bM9WyDjJhCQa04-10" style="rounded=1;orthogonalLoop=1;jettySize=auto;html=1;exitX=0.67;exitY=0;exitDx=0;exitDy=0;exitPerimeter=0;entryX=0.5;entryY=1;entryDx=0;entryDy=0;entryPerimeter=0;strokeColor=default;strokeWidth=2;align=center;verticalAlign=middle;fontFamily=Helvetica;fontSize=11;fontColor=default;labelBackgroundColor=default;jumpStyle=gap;endArrow=classic;endFill=1;" edge="1" parent="1" source="yk04Y9bM9WyDjJhCQa04-21" target="yk04Y9bM9WyDjJhCQa04-16">
          <mxGeometry relative="1" as="geometry">
            <mxPoint x="221" y="360" as="sourcePoint" />
          </mxGeometry>
        </mxCell>
        <mxCell id="yk04Y9bM9WyDjJhCQa04-11" style="rounded=1;orthogonalLoop=1;jettySize=auto;html=1;exitX=0.67;exitY=0;exitDx=0;exitDy=0;exitPerimeter=0;strokeWidth=2;endArrow=classic;endFill=1;curved=0;jumpStyle=gap;" edge="1" parent="1" source="yk04Y9bM9WyDjJhCQa04-14">
          <mxGeometry relative="1" as="geometry">
            <mxPoint x="195" y="570" as="targetPoint" />
            <Array as="points" />
          </mxGeometry>
        </mxCell>
        <mxCell id="yk04Y9bM9WyDjJhCQa04-12" style="rounded=1;orthogonalLoop=1;jettySize=auto;html=1;strokeWidth=2;endArrow=classic;endFill=1;curved=0;jumpStyle=gap;exitX=0.33;exitY=0;exitDx=0;exitDy=0;exitPerimeter=0;entryX=0.33;entryY=0;entryDx=0;entryDy=0;entryPerimeter=0;" edge="1" parent="1" source="yk04Y9bM9WyDjJhCQa04-14" target="yk04Y9bM9WyDjJhCQa04-21">
          <mxGeometry relative="1" as="geometry">
            <mxPoint x="200" y="390" as="targetPoint" />
            <mxPoint x="180" y="495" as="sourcePoint" />
            <Array as="points">
              <mxPoint x="150" y="565" />
              <mxPoint x="130" y="565" />
              <mxPoint x="130" y="545" />
            </Array>
          </mxGeometry>
        </mxCell>
        <mxCell id="yk04Y9bM9WyDjJhCQa04-13" value="" style="rounded=1;orthogonalLoop=1;jettySize=auto;html=1;strokeWidth=2;endArrow=classic;endFill=1;curved=0;jumpStyle=gap;" edge="1" parent="1" target="yk04Y9bM9WyDjJhCQa04-14">
          <mxGeometry relative="1" as="geometry">
            <mxPoint x="205" y="570" as="targetPoint" />
            <mxPoint x="190" y="470" as="sourcePoint" />
            <Array as="points" />
          </mxGeometry>
        </mxCell>
        <mxCell id="yk04Y9bM9WyDjJhCQa04-14" value="" style="verticalLabelPosition=bottom;verticalAlign=top;html=1;shape=mxgraph.basic.half_circle;fontFamily=Helvetica;fontSize=11;labelBackgroundColor=default;fillColor=#e1d5e7;strokeColor=#9673a6;flipV=1;points=[[0.33,0,0,0,0],[0.5,1,0,0,0],[0.67,0,0,0,0]];" vertex="1" parent="1">
          <mxGeometry x="155" y="500" width="40" height="20" as="geometry" />
        </mxCell>
        <mxCell id="yk04Y9bM9WyDjJhCQa04-15" style="rounded=1;orthogonalLoop=1;jettySize=auto;html=1;strokeWidth=2;endArrow=classic;endFill=1;curved=0;jumpStyle=gap;exitX=0.67;exitY=0;exitDx=0;exitDy=0;exitPerimeter=0;" edge="1" parent="1" source="yk04Y9bM9WyDjJhCQa04-16">
          <mxGeometry relative="1" as="geometry">
            <mxPoint x="275" y="570" as="targetPoint" />
            <Array as="points" />
            <mxPoint x="226" y="415" as="sourcePoint" />
          </mxGeometry>
        </mxCell>
        <mxCell id="yk04Y9bM9WyDjJhCQa04-16" value="" style="verticalLabelPosition=bottom;verticalAlign=top;html=1;shape=mxgraph.basic.half_circle;fontFamily=Helvetica;fontSize=11;labelBackgroundColor=default;fillColor=#e1d5e7;strokeColor=#9673a6;flipV=1;points=[[0.33,0,0,0,0],[0.5,1,0,0,0],[0.67,0,0,0,0]];" vertex="1" parent="1">
          <mxGeometry x="201" y="380" width="40" height="20" as="geometry" />
        </mxCell>
        <mxCell id="yk04Y9bM9WyDjJhCQa04-17" value="" style="rounded=1;orthogonalLoop=1;jettySize=auto;html=1;strokeWidth=2;endArrow=classic;endFill=1;curved=0;jumpStyle=gap;exitX=0.33;exitY=0;exitDx=0;exitDy=0;exitPerimeter=0;" edge="1" parent="1" source="yk04Y9bM9WyDjJhCQa04-16">
          <mxGeometry relative="1" as="geometry">
            <mxPoint x="200" y="440" as="targetPoint" />
            <mxPoint x="214" y="400" as="sourcePoint" />
            <Array as="points" />
          </mxGeometry>
        </mxCell>
        <mxCell id="yk04Y9bM9WyDjJhCQa04-18" value="$$\cdots$$" style="text;html=1;align=center;verticalAlign=middle;resizable=0;points=[];autosize=1;strokeColor=none;fillColor=none;" vertex="1" parent="1">
          <mxGeometry x="155" y="440" width="80" height="30" as="geometry" />
        </mxCell>
        <mxCell id="yk04Y9bM9WyDjJhCQa04-19" value="$$\cdots$$" style="text;html=1;align=center;verticalAlign=middle;resizable=0;points=[];autosize=1;strokeColor=none;fillColor=none;" vertex="1" parent="1">
          <mxGeometry x="185" y="520" width="80" height="30" as="geometry" />
        </mxCell>
        <mxCell id="yk04Y9bM9WyDjJhCQa04-20" style="edgeStyle=none;shape=connector;curved=0;rounded=1;jumpStyle=gap;orthogonalLoop=1;jettySize=auto;html=1;exitX=0.5;exitY=1;exitDx=0;exitDy=0;exitPerimeter=0;strokeColor=default;strokeWidth=2;align=center;verticalAlign=middle;fontFamily=Helvetica;fontSize=11;fontColor=default;labelBackgroundColor=default;endArrow=classic;endFill=1;entryX=0.5;entryY=1;entryDx=0;entryDy=0;entryPerimeter=0;" edge="1" parent="1" target="yk04Y9bM9WyDjJhCQa04-21">
          <mxGeometry relative="1" as="geometry">
            <mxPoint x="209.80487804878055" y="300" as="sourcePoint" />
          </mxGeometry>
        </mxCell>
        <mxCell id="yk04Y9bM9WyDjJhCQa04-21" value="" style="verticalLabelPosition=bottom;verticalAlign=top;html=1;shape=mxgraph.basic.half_circle;fontFamily=Helvetica;fontSize=11;labelBackgroundColor=default;fillColor=#e1d5e7;strokeColor=#9673a6;flipV=1;points=[[0.33,0,0,0,0],[0.5,1,0,0,0],[0.67,0,0,0,0]];" vertex="1" parent="1">
          <mxGeometry x="190" y="330" width="40" height="20" as="geometry" />
        </mxCell>
        <mxCell id="yk04Y9bM9WyDjJhCQa04-22" style="edgeStyle=none;shape=connector;curved=0;rounded=1;jumpStyle=gap;orthogonalLoop=1;jettySize=auto;html=1;exitX=0.33;exitY=0;exitDx=0;exitDy=0;exitPerimeter=0;strokeColor=default;strokeWidth=2;align=center;verticalAlign=middle;fontFamily=Helvetica;fontSize=11;fontColor=default;labelBackgroundColor=default;endArrow=classic;endFill=1;" edge="1" parent="1" source="yk04Y9bM9WyDjJhCQa04-23">
          <mxGeometry relative="1" as="geometry">
            <mxPoint x="125" y="70" as="targetPoint" />
          </mxGeometry>
        </mxCell>
        <mxCell id="yk04Y9bM9WyDjJhCQa04-23" value="" style="verticalLabelPosition=bottom;verticalAlign=top;html=1;shape=mxgraph.basic.half_circle;fontFamily=Helvetica;fontSize=11;labelBackgroundColor=default;fillColor=#e1d5e7;strokeColor=#9673a6;flipV=0;points=[[0.33,0,0,0,0],[0.5,1,0,0,0],[0.67,0,0,0,0]];" vertex="1" parent="1">
          <mxGeometry x="191" y="290" width="40" height="20" as="geometry" />
        </mxCell>
        <mxCell id="yk04Y9bM9WyDjJhCQa04-24" style="edgeStyle=none;shape=connector;curved=0;rounded=1;jumpStyle=gap;orthogonalLoop=1;jettySize=auto;html=1;exitX=0.5;exitY=1;exitDx=0;exitDy=0;exitPerimeter=0;entryX=0.67;entryY=0;entryDx=0;entryDy=0;entryPerimeter=0;strokeColor=default;strokeWidth=2;align=center;verticalAlign=middle;fontFamily=Helvetica;fontSize=11;fontColor=default;labelBackgroundColor=default;endArrow=classic;endFill=1;" edge="1" parent="1" source="yk04Y9bM9WyDjJhCQa04-6" target="yk04Y9bM9WyDjJhCQa04-23">
          <mxGeometry relative="1" as="geometry" />
        </mxCell>
      </root>
    </mxGraphModel>
  </diagram>
  <diagram id="DBO5LF2ATsVgLLHjJVDs" name="Page-3">
    <mxGraphModel dx="1566" dy="1254" grid="1" gridSize="10" guides="1" tooltips="1" connect="1" arrows="1" fold="1" page="1" pageScale="1" pageWidth="827" pageHeight="1169" math="1" shadow="0">
      <root>
        <mxCell id="0" />
        <mxCell id="1" parent="0" />
        <mxCell id="aMoSMavxJrEAo5hRryRY-1" style="rounded=1;orthogonalLoop=1;jettySize=auto;html=1;strokeWidth=2;endArrow=classic;endFill=1;curved=0;jumpStyle=gap;entryX=0.67;entryY=0;entryDx=0;entryDy=0;entryPerimeter=0;" edge="1" parent="1" target="aMoSMavxJrEAo5hRryRY-3">
          <mxGeometry relative="1" as="geometry">
            <Array as="points" />
            <mxPoint x="200" y="60" as="sourcePoint" />
          </mxGeometry>
        </mxCell>
        <mxCell id="aMoSMavxJrEAo5hRryRY-2" value="" style="rounded=1;orthogonalLoop=1;jettySize=auto;html=1;strokeWidth=2;endArrow=classic;endFill=1;curved=0;jumpStyle=gap;" edge="1" parent="1" source="aMoSMavxJrEAo5hRryRY-3">
          <mxGeometry relative="1" as="geometry">
            <mxPoint x="180" y="210" as="targetPoint" />
            <mxPoint x="195" y="110" as="sourcePoint" />
            <Array as="points" />
          </mxGeometry>
        </mxCell>
        <mxCell id="aMoSMavxJrEAo5hRryRY-3" value="" style="verticalLabelPosition=bottom;verticalAlign=top;html=1;shape=mxgraph.basic.half_circle;fontFamily=Helvetica;fontSize=11;labelBackgroundColor=default;fillColor=#e1d5e7;strokeColor=#9673a6;flipV=0;points=[[0.33,0,0,0,0],[0.5,1,0,0,0],[0.67,0,0,0,0]];" vertex="1" parent="1">
          <mxGeometry x="145" y="160" width="40" height="20" as="geometry" />
        </mxCell>
        <mxCell id="aMoSMavxJrEAo5hRryRY-4" style="rounded=1;orthogonalLoop=1;jettySize=auto;html=1;strokeWidth=2;endArrow=classic;endFill=1;curved=0;jumpStyle=gap;entryX=0.67;entryY=0;entryDx=0;entryDy=0;entryPerimeter=0;" edge="1" parent="1" target="aMoSMavxJrEAo5hRryRY-5">
          <mxGeometry relative="1" as="geometry">
            <mxPoint x="216" y="265" as="targetPoint" />
            <Array as="points" />
            <mxPoint x="280" y="60" as="sourcePoint" />
          </mxGeometry>
        </mxCell>
        <mxCell id="aMoSMavxJrEAo5hRryRY-5" value="" style="verticalLabelPosition=bottom;verticalAlign=top;html=1;shape=mxgraph.basic.half_circle;fontFamily=Helvetica;fontSize=11;labelBackgroundColor=default;fillColor=#e1d5e7;strokeColor=#9673a6;flipV=0;points=[[0.33,0,0,0,0],[0.5,1,0,0,0],[0.67,0,0,0,0]];" vertex="1" parent="1">
          <mxGeometry x="191" y="280" width="40" height="20" as="geometry" />
        </mxCell>
        <mxCell id="aMoSMavxJrEAo5hRryRY-6" value="" style="rounded=1;orthogonalLoop=1;jettySize=auto;html=1;strokeWidth=2;endArrow=classic;endFill=1;curved=0;jumpStyle=gap;exitX=0.33;exitY=0;exitDx=0;exitDy=0;exitPerimeter=0;entryX=0.33;entryY=0;entryDx=0;entryDy=0;entryPerimeter=0;" edge="1" parent="1" target="aMoSMavxJrEAo5hRryRY-5">
          <mxGeometry relative="1" as="geometry">
            <mxPoint x="204" y="280" as="targetPoint" />
            <mxPoint x="190" y="240" as="sourcePoint" />
            <Array as="points" />
          </mxGeometry>
        </mxCell>
        <mxCell id="aMoSMavxJrEAo5hRryRY-7" value="$$\cdots$$" style="text;html=1;align=center;verticalAlign=middle;resizable=0;points=[];autosize=1;strokeColor=none;fillColor=none;" vertex="1" parent="1">
          <mxGeometry x="145" y="210" width="80" height="30" as="geometry" />
        </mxCell>
        <mxCell id="aMoSMavxJrEAo5hRryRY-8" value="$$\cdots$$" style="text;html=1;align=center;verticalAlign=middle;resizable=0;points=[];autosize=1;strokeColor=none;fillColor=none;" vertex="1" parent="1">
          <mxGeometry x="175" y="130" width="80" height="30" as="geometry" />
        </mxCell>
        <mxCell id="aMoSMavxJrEAo5hRryRY-9" style="rounded=1;orthogonalLoop=1;jettySize=auto;html=1;exitX=0.67;exitY=0;exitDx=0;exitDy=0;exitPerimeter=0;entryX=0.5;entryY=1;entryDx=0;entryDy=0;entryPerimeter=0;strokeColor=default;strokeWidth=2;align=center;verticalAlign=middle;fontFamily=Helvetica;fontSize=11;fontColor=default;labelBackgroundColor=default;jumpStyle=gap;endArrow=classic;endFill=1;" edge="1" parent="1" source="aMoSMavxJrEAo5hRryRY-20" target="aMoSMavxJrEAo5hRryRY-15">
          <mxGeometry relative="1" as="geometry">
            <mxPoint x="221" y="360" as="sourcePoint" />
          </mxGeometry>
        </mxCell>
        <mxCell id="aMoSMavxJrEAo5hRryRY-10" style="rounded=1;orthogonalLoop=1;jettySize=auto;html=1;exitX=0.67;exitY=0;exitDx=0;exitDy=0;exitPerimeter=0;strokeWidth=2;endArrow=classic;endFill=1;curved=0;jumpStyle=gap;" edge="1" parent="1" source="aMoSMavxJrEAo5hRryRY-13">
          <mxGeometry relative="1" as="geometry">
            <mxPoint x="195" y="570" as="targetPoint" />
            <Array as="points" />
          </mxGeometry>
        </mxCell>
        <mxCell id="aMoSMavxJrEAo5hRryRY-11" style="rounded=1;orthogonalLoop=1;jettySize=auto;html=1;strokeWidth=2;endArrow=classic;endFill=1;curved=0;jumpStyle=gap;exitX=0.33;exitY=0;exitDx=0;exitDy=0;exitPerimeter=0;entryX=0.33;entryY=0;entryDx=0;entryDy=0;entryPerimeter=0;" edge="1" parent="1" source="aMoSMavxJrEAo5hRryRY-13" target="aMoSMavxJrEAo5hRryRY-20">
          <mxGeometry relative="1" as="geometry">
            <mxPoint x="200" y="390" as="targetPoint" />
            <mxPoint x="180" y="495" as="sourcePoint" />
            <Array as="points">
              <mxPoint x="150" y="565" />
              <mxPoint x="130" y="565" />
              <mxPoint x="130" y="545" />
            </Array>
          </mxGeometry>
        </mxCell>
        <mxCell id="aMoSMavxJrEAo5hRryRY-12" value="" style="rounded=1;orthogonalLoop=1;jettySize=auto;html=1;strokeWidth=2;endArrow=classic;endFill=1;curved=0;jumpStyle=gap;" edge="1" parent="1" target="aMoSMavxJrEAo5hRryRY-13">
          <mxGeometry relative="1" as="geometry">
            <mxPoint x="205" y="570" as="targetPoint" />
            <mxPoint x="190" y="470" as="sourcePoint" />
            <Array as="points" />
          </mxGeometry>
        </mxCell>
        <mxCell id="aMoSMavxJrEAo5hRryRY-13" value="" style="verticalLabelPosition=bottom;verticalAlign=top;html=1;shape=mxgraph.basic.half_circle;fontFamily=Helvetica;fontSize=11;labelBackgroundColor=default;fillColor=#e1d5e7;strokeColor=#9673a6;flipV=1;points=[[0.33,0,0,0,0],[0.5,1,0,0,0],[0.67,0,0,0,0]];" vertex="1" parent="1">
          <mxGeometry x="155" y="500" width="40" height="20" as="geometry" />
        </mxCell>
        <mxCell id="aMoSMavxJrEAo5hRryRY-14" style="rounded=1;orthogonalLoop=1;jettySize=auto;html=1;strokeWidth=2;endArrow=classic;endFill=1;curved=0;jumpStyle=gap;exitX=0.67;exitY=0;exitDx=0;exitDy=0;exitPerimeter=0;" edge="1" parent="1" source="aMoSMavxJrEAo5hRryRY-15">
          <mxGeometry relative="1" as="geometry">
            <mxPoint x="275" y="570" as="targetPoint" />
            <Array as="points" />
            <mxPoint x="226" y="415" as="sourcePoint" />
          </mxGeometry>
        </mxCell>
        <mxCell id="aMoSMavxJrEAo5hRryRY-15" value="" style="verticalLabelPosition=bottom;verticalAlign=top;html=1;shape=mxgraph.basic.half_circle;fontFamily=Helvetica;fontSize=11;labelBackgroundColor=default;fillColor=#e1d5e7;strokeColor=#9673a6;flipV=1;points=[[0.33,0,0,0,0],[0.5,1,0,0,0],[0.67,0,0,0,0]];" vertex="1" parent="1">
          <mxGeometry x="201" y="380" width="40" height="20" as="geometry" />
        </mxCell>
        <mxCell id="aMoSMavxJrEAo5hRryRY-16" value="" style="rounded=1;orthogonalLoop=1;jettySize=auto;html=1;strokeWidth=2;endArrow=classic;endFill=1;curved=0;jumpStyle=gap;exitX=0.33;exitY=0;exitDx=0;exitDy=0;exitPerimeter=0;" edge="1" parent="1" source="aMoSMavxJrEAo5hRryRY-15">
          <mxGeometry relative="1" as="geometry">
            <mxPoint x="200" y="440" as="targetPoint" />
            <mxPoint x="214" y="400" as="sourcePoint" />
            <Array as="points" />
          </mxGeometry>
        </mxCell>
        <mxCell id="aMoSMavxJrEAo5hRryRY-17" value="$$\cdots$$" style="text;html=1;align=center;verticalAlign=middle;resizable=0;points=[];autosize=1;strokeColor=none;fillColor=none;" vertex="1" parent="1">
          <mxGeometry x="155" y="440" width="80" height="30" as="geometry" />
        </mxCell>
        <mxCell id="aMoSMavxJrEAo5hRryRY-18" value="$$\cdots$$" style="text;html=1;align=center;verticalAlign=middle;resizable=0;points=[];autosize=1;strokeColor=none;fillColor=none;" vertex="1" parent="1">
          <mxGeometry x="185" y="520" width="80" height="30" as="geometry" />
        </mxCell>
        <mxCell id="aMoSMavxJrEAo5hRryRY-19" style="edgeStyle=none;shape=connector;curved=0;rounded=1;jumpStyle=gap;orthogonalLoop=1;jettySize=auto;html=1;exitX=0.5;exitY=1;exitDx=0;exitDy=0;exitPerimeter=0;strokeColor=default;strokeWidth=2;align=center;verticalAlign=middle;fontFamily=Helvetica;fontSize=11;fontColor=default;labelBackgroundColor=default;endArrow=classic;endFill=1;entryX=0.5;entryY=1;entryDx=0;entryDy=0;entryPerimeter=0;" edge="1" parent="1" target="aMoSMavxJrEAo5hRryRY-20">
          <mxGeometry relative="1" as="geometry">
            <mxPoint x="209.80487804878055" y="300" as="sourcePoint" />
          </mxGeometry>
        </mxCell>
        <mxCell id="aMoSMavxJrEAo5hRryRY-20" value="" style="verticalLabelPosition=bottom;verticalAlign=top;html=1;shape=mxgraph.basic.half_circle;fontFamily=Helvetica;fontSize=11;labelBackgroundColor=default;fillColor=#e1d5e7;strokeColor=#9673a6;flipV=1;points=[[0.33,0,0,0,0],[0.5,1,0,0,0],[0.67,0,0,0,0]];" vertex="1" parent="1">
          <mxGeometry x="190" y="330" width="40" height="20" as="geometry" />
        </mxCell>
        <mxCell id="aMoSMavxJrEAo5hRryRY-21" style="rounded=1;orthogonalLoop=1;jettySize=auto;html=1;exitX=0.67;exitY=0;exitDx=0;exitDy=0;exitPerimeter=0;strokeWidth=2;endArrow=classic;endFill=1;curved=0;jumpStyle=gap;entryX=0.67;entryY=0;entryDx=0;entryDy=0;entryPerimeter=0;" edge="1" parent="1" target="aMoSMavxJrEAo5hRryRY-24">
          <mxGeometry relative="1" as="geometry">
            <Array as="points" />
            <mxPoint x="165" y="60" as="sourcePoint" />
          </mxGeometry>
        </mxCell>
        <mxCell id="aMoSMavxJrEAo5hRryRY-22" style="rounded=1;orthogonalLoop=1;jettySize=auto;html=1;strokeWidth=2;endArrow=classic;endFill=1;curved=0;jumpStyle=gap;exitX=0.33;exitY=0;exitDx=0;exitDy=0;exitPerimeter=0;entryX=0.33;entryY=0;entryDx=0;entryDy=0;entryPerimeter=0;" edge="1" parent="1" target="aMoSMavxJrEAo5hRryRY-24">
          <mxGeometry relative="1" as="geometry">
            <mxPoint x="150" y="155" as="targetPoint" />
            <mxPoint x="125" y="60" as="sourcePoint" />
            <Array as="points" />
          </mxGeometry>
        </mxCell>
        <mxCell id="aMoSMavxJrEAo5hRryRY-23" value="" style="rounded=1;orthogonalLoop=1;jettySize=auto;html=1;strokeWidth=2;endArrow=classic;endFill=1;curved=0;jumpStyle=gap;" edge="1" parent="1" source="aMoSMavxJrEAo5hRryRY-24">
          <mxGeometry relative="1" as="geometry">
            <mxPoint x="160" y="160" as="targetPoint" />
            <mxPoint x="175" y="60" as="sourcePoint" />
            <Array as="points" />
          </mxGeometry>
        </mxCell>
        <mxCell id="aMoSMavxJrEAo5hRryRY-24" value="" style="verticalLabelPosition=bottom;verticalAlign=top;html=1;shape=mxgraph.basic.half_circle;fontFamily=Helvetica;fontSize=11;labelBackgroundColor=default;fillColor=#e1d5e7;strokeColor=#9673a6;flipV=0;points=[[0.33,0,0,0,0],[0.5,1,0,0,0],[0.67,0,0,0,0]];" vertex="1" parent="1">
          <mxGeometry x="125" y="110" width="40" height="20" as="geometry" />
        </mxCell>
      </root>
    </mxGraphModel>
  </diagram>
  <diagram id="EyVMFk9fYBrsx5mRqVtu" name="Page-4">
    <mxGraphModel dx="1566" dy="1254" grid="1" gridSize="10" guides="1" tooltips="1" connect="1" arrows="1" fold="1" page="1" pageScale="1" pageWidth="827" pageHeight="1169" math="1" shadow="0">
      <root>
        <mxCell id="0" />
        <mxCell id="1" parent="0" />
        <mxCell id="NTzclUcEejTPHs_qBJ9p-1" style="rounded=1;orthogonalLoop=1;jettySize=auto;html=1;strokeWidth=2;endArrow=classic;endFill=1;curved=0;jumpStyle=gap;entryX=0.67;entryY=0;entryDx=0;entryDy=0;entryPerimeter=0;" edge="1" parent="1" target="NTzclUcEejTPHs_qBJ9p-3">
          <mxGeometry relative="1" as="geometry">
            <Array as="points" />
            <mxPoint x="200" y="60" as="sourcePoint" />
          </mxGeometry>
        </mxCell>
        <mxCell id="NTzclUcEejTPHs_qBJ9p-2" value="" style="rounded=1;orthogonalLoop=1;jettySize=auto;html=1;strokeWidth=2;endArrow=classic;endFill=1;curved=0;jumpStyle=gap;" edge="1" parent="1" source="NTzclUcEejTPHs_qBJ9p-3">
          <mxGeometry relative="1" as="geometry">
            <mxPoint x="180" y="210" as="targetPoint" />
            <mxPoint x="195" y="110" as="sourcePoint" />
            <Array as="points" />
          </mxGeometry>
        </mxCell>
        <mxCell id="NTzclUcEejTPHs_qBJ9p-3" value="" style="verticalLabelPosition=bottom;verticalAlign=top;html=1;shape=mxgraph.basic.half_circle;fontFamily=Helvetica;fontSize=11;labelBackgroundColor=default;fillColor=#e1d5e7;strokeColor=#9673a6;flipV=0;points=[[0.33,0,0,0,0],[0.5,1,0,0,0],[0.67,0,0,0,0]];" vertex="1" parent="1">
          <mxGeometry x="145" y="160" width="40" height="20" as="geometry" />
        </mxCell>
        <mxCell id="NTzclUcEejTPHs_qBJ9p-4" style="rounded=1;orthogonalLoop=1;jettySize=auto;html=1;strokeWidth=2;endArrow=classic;endFill=1;curved=0;jumpStyle=gap;entryX=0.67;entryY=0;entryDx=0;entryDy=0;entryPerimeter=0;" edge="1" parent="1" target="NTzclUcEejTPHs_qBJ9p-5">
          <mxGeometry relative="1" as="geometry">
            <mxPoint x="216" y="265" as="targetPoint" />
            <Array as="points" />
            <mxPoint x="280" y="60" as="sourcePoint" />
          </mxGeometry>
        </mxCell>
        <mxCell id="NTzclUcEejTPHs_qBJ9p-5" value="" style="verticalLabelPosition=bottom;verticalAlign=top;html=1;shape=mxgraph.basic.half_circle;fontFamily=Helvetica;fontSize=11;labelBackgroundColor=default;fillColor=#e1d5e7;strokeColor=#9673a6;flipV=0;points=[[0.33,0,0,0,0],[0.5,1,0,0,0],[0.67,0,0,0,0]];" vertex="1" parent="1">
          <mxGeometry x="190" y="280" width="40" height="20" as="geometry" />
        </mxCell>
        <mxCell id="NTzclUcEejTPHs_qBJ9p-6" value="" style="rounded=1;orthogonalLoop=1;jettySize=auto;html=1;strokeWidth=2;endArrow=classic;endFill=1;curved=0;jumpStyle=gap;exitX=0.33;exitY=0;exitDx=0;exitDy=0;exitPerimeter=0;entryX=0.33;entryY=0;entryDx=0;entryDy=0;entryPerimeter=0;" edge="1" parent="1" target="NTzclUcEejTPHs_qBJ9p-5">
          <mxGeometry relative="1" as="geometry">
            <mxPoint x="204" y="280" as="targetPoint" />
            <mxPoint x="190" y="240" as="sourcePoint" />
            <Array as="points" />
          </mxGeometry>
        </mxCell>
        <mxCell id="NTzclUcEejTPHs_qBJ9p-7" value="$$\cdots$$" style="text;html=1;align=center;verticalAlign=middle;resizable=0;points=[];autosize=1;strokeColor=none;fillColor=none;" vertex="1" parent="1">
          <mxGeometry x="145" y="210" width="80" height="30" as="geometry" />
        </mxCell>
        <mxCell id="NTzclUcEejTPHs_qBJ9p-8" value="$$\cdots$$" style="text;html=1;align=center;verticalAlign=middle;resizable=0;points=[];autosize=1;strokeColor=none;fillColor=none;" vertex="1" parent="1">
          <mxGeometry x="175" y="130" width="80" height="30" as="geometry" />
        </mxCell>
        <mxCell id="NTzclUcEejTPHs_qBJ9p-9" style="rounded=1;orthogonalLoop=1;jettySize=auto;html=1;exitX=0.67;exitY=0;exitDx=0;exitDy=0;exitPerimeter=0;strokeWidth=2;endArrow=classic;endFill=1;curved=0;jumpStyle=gap;" edge="1" parent="1" source="NTzclUcEejTPHs_qBJ9p-11">
          <mxGeometry relative="1" as="geometry">
            <mxPoint x="195" y="560" as="targetPoint" />
            <Array as="points" />
          </mxGeometry>
        </mxCell>
        <mxCell id="NTzclUcEejTPHs_qBJ9p-10" value="" style="rounded=1;orthogonalLoop=1;jettySize=auto;html=1;strokeWidth=2;endArrow=classic;endFill=1;curved=0;jumpStyle=gap;" edge="1" parent="1" target="NTzclUcEejTPHs_qBJ9p-11">
          <mxGeometry relative="1" as="geometry">
            <mxPoint x="195" y="520" as="targetPoint" />
            <mxPoint x="180" y="420" as="sourcePoint" />
            <Array as="points" />
          </mxGeometry>
        </mxCell>
        <mxCell id="NTzclUcEejTPHs_qBJ9p-11" value="" style="verticalLabelPosition=bottom;verticalAlign=top;html=1;shape=mxgraph.basic.half_circle;fontFamily=Helvetica;fontSize=11;labelBackgroundColor=default;fillColor=#e1d5e7;strokeColor=#9673a6;flipV=1;points=[[0.33,0,0,0,0],[0.5,1,0,0,0],[0.67,0,0,0,0]];" vertex="1" parent="1">
          <mxGeometry x="145" y="450" width="40" height="20" as="geometry" />
        </mxCell>
        <mxCell id="NTzclUcEejTPHs_qBJ9p-12" style="rounded=1;orthogonalLoop=1;jettySize=auto;html=1;strokeWidth=2;endArrow=classic;endFill=1;curved=0;jumpStyle=gap;exitX=0.67;exitY=0;exitDx=0;exitDy=0;exitPerimeter=0;" edge="1" parent="1" source="NTzclUcEejTPHs_qBJ9p-13">
          <mxGeometry relative="1" as="geometry">
            <mxPoint x="275" y="560" as="targetPoint" />
            <Array as="points" />
            <mxPoint x="216" y="365" as="sourcePoint" />
          </mxGeometry>
        </mxCell>
        <mxCell id="NTzclUcEejTPHs_qBJ9p-13" value="" style="verticalLabelPosition=bottom;verticalAlign=top;html=1;shape=mxgraph.basic.half_circle;fontFamily=Helvetica;fontSize=11;labelBackgroundColor=default;fillColor=#e1d5e7;strokeColor=#9673a6;flipV=1;points=[[0.33,0,0,0,0],[0.5,1,0,0,0],[0.67,0,0,0,0]];" vertex="1" parent="1">
          <mxGeometry x="190" y="330" width="40" height="20" as="geometry" />
        </mxCell>
        <mxCell id="NTzclUcEejTPHs_qBJ9p-14" value="" style="rounded=1;orthogonalLoop=1;jettySize=auto;html=1;strokeWidth=2;endArrow=classic;endFill=1;curved=0;jumpStyle=gap;exitX=0.33;exitY=0;exitDx=0;exitDy=0;exitPerimeter=0;" edge="1" parent="1" source="NTzclUcEejTPHs_qBJ9p-13">
          <mxGeometry relative="1" as="geometry">
            <mxPoint x="190" y="390" as="targetPoint" />
            <mxPoint x="204" y="350" as="sourcePoint" />
            <Array as="points" />
          </mxGeometry>
        </mxCell>
        <mxCell id="NTzclUcEejTPHs_qBJ9p-15" value="$$\cdots$$" style="text;html=1;align=center;verticalAlign=middle;resizable=0;points=[];autosize=1;strokeColor=none;fillColor=none;" vertex="1" parent="1">
          <mxGeometry x="145" y="390" width="80" height="30" as="geometry" />
        </mxCell>
        <mxCell id="NTzclUcEejTPHs_qBJ9p-16" value="$$\cdots$$" style="text;html=1;align=center;verticalAlign=middle;resizable=0;points=[];autosize=1;strokeColor=none;fillColor=none;" vertex="1" parent="1">
          <mxGeometry x="175" y="470" width="80" height="30" as="geometry" />
        </mxCell>
        <mxCell id="NTzclUcEejTPHs_qBJ9p-17" style="edgeStyle=none;shape=connector;curved=0;rounded=1;jumpStyle=gap;orthogonalLoop=1;jettySize=auto;html=1;exitX=0.5;exitY=1;exitDx=0;exitDy=0;exitPerimeter=0;strokeColor=default;strokeWidth=2;align=center;verticalAlign=middle;fontFamily=Helvetica;fontSize=11;fontColor=default;labelBackgroundColor=default;endArrow=classic;endFill=1;entryX=0.5;entryY=1;entryDx=0;entryDy=0;entryPerimeter=0;" edge="1" parent="1" target="NTzclUcEejTPHs_qBJ9p-13">
          <mxGeometry relative="1" as="geometry">
            <mxPoint x="209.80487804878055" y="300" as="sourcePoint" />
            <mxPoint x="210" y="330" as="targetPoint" />
          </mxGeometry>
        </mxCell>
        <mxCell id="NTzclUcEejTPHs_qBJ9p-18" style="rounded=1;orthogonalLoop=1;jettySize=auto;html=1;exitX=0.67;exitY=0;exitDx=0;exitDy=0;exitPerimeter=0;strokeWidth=2;endArrow=classic;endFill=1;curved=0;jumpStyle=gap;entryX=0.67;entryY=0;entryDx=0;entryDy=0;entryPerimeter=0;" edge="1" parent="1" target="NTzclUcEejTPHs_qBJ9p-21">
          <mxGeometry relative="1" as="geometry">
            <Array as="points" />
            <mxPoint x="165" y="60" as="sourcePoint" />
          </mxGeometry>
        </mxCell>
        <mxCell id="NTzclUcEejTPHs_qBJ9p-19" style="rounded=1;orthogonalLoop=1;jettySize=auto;html=1;strokeWidth=2;endArrow=classic;endFill=1;curved=0;jumpStyle=gap;exitX=0.33;exitY=0;exitDx=0;exitDy=0;exitPerimeter=0;entryX=0.33;entryY=0;entryDx=0;entryDy=0;entryPerimeter=0;" edge="1" parent="1" target="NTzclUcEejTPHs_qBJ9p-21">
          <mxGeometry relative="1" as="geometry">
            <mxPoint x="150" y="155" as="targetPoint" />
            <mxPoint x="125" y="60" as="sourcePoint" />
            <Array as="points" />
          </mxGeometry>
        </mxCell>
        <mxCell id="NTzclUcEejTPHs_qBJ9p-20" value="" style="rounded=1;orthogonalLoop=1;jettySize=auto;html=1;strokeWidth=2;endArrow=classic;endFill=1;curved=0;jumpStyle=gap;" edge="1" parent="1" source="NTzclUcEejTPHs_qBJ9p-21">
          <mxGeometry relative="1" as="geometry">
            <mxPoint x="160" y="160" as="targetPoint" />
            <mxPoint x="175" y="60" as="sourcePoint" />
            <Array as="points" />
          </mxGeometry>
        </mxCell>
        <mxCell id="NTzclUcEejTPHs_qBJ9p-21" value="" style="verticalLabelPosition=bottom;verticalAlign=top;html=1;shape=mxgraph.basic.half_circle;fontFamily=Helvetica;fontSize=11;labelBackgroundColor=default;fillColor=#e1d5e7;strokeColor=#9673a6;flipV=0;points=[[0.33,0,0,0,0],[0.5,1,0,0,0],[0.67,0,0,0,0]];" vertex="1" parent="1">
          <mxGeometry x="125" y="110" width="40" height="20" as="geometry" />
        </mxCell>
        <mxCell id="NTzclUcEejTPHs_qBJ9p-22" style="rounded=1;orthogonalLoop=1;jettySize=auto;html=1;exitX=0.67;exitY=0;exitDx=0;exitDy=0;exitPerimeter=0;strokeWidth=2;endArrow=classic;endFill=1;curved=0;jumpStyle=gap;entryX=0.33;entryY=0;entryDx=0;entryDy=0;entryPerimeter=0;" edge="1" parent="1" source="NTzclUcEejTPHs_qBJ9p-24" target="NTzclUcEejTPHs_qBJ9p-24">
          <mxGeometry relative="1" as="geometry">
            <mxPoint x="140" y="560" as="targetPoint" />
            <Array as="points">
              <mxPoint x="165" y="560" />
              <mxPoint x="145" y="560" />
              <mxPoint x="125" y="560" />
            </Array>
          </mxGeometry>
        </mxCell>
        <mxCell id="NTzclUcEejTPHs_qBJ9p-23" value="" style="rounded=1;orthogonalLoop=1;jettySize=auto;html=1;strokeWidth=2;endArrow=classic;endFill=1;curved=0;jumpStyle=gap;" edge="1" parent="1" target="NTzclUcEejTPHs_qBJ9p-24">
          <mxGeometry relative="1" as="geometry">
            <mxPoint x="175" y="570" as="targetPoint" />
            <mxPoint x="160" y="470" as="sourcePoint" />
            <Array as="points" />
          </mxGeometry>
        </mxCell>
        <mxCell id="NTzclUcEejTPHs_qBJ9p-24" value="" style="verticalLabelPosition=bottom;verticalAlign=top;html=1;shape=mxgraph.basic.half_circle;fontFamily=Helvetica;fontSize=11;labelBackgroundColor=default;fillColor=#e1d5e7;strokeColor=#9673a6;flipV=1;points=[[0.33,0,0,0,0],[0.5,1,0,0,0],[0.67,0,0,0,0]];" vertex="1" parent="1">
          <mxGeometry x="125" y="500" width="40" height="20" as="geometry" />
        </mxCell>
      </root>
    </mxGraphModel>
  </diagram>
  <diagram id="rwmxqBOsW0bxQO0lPxSy" name="Page-5">
    <mxGraphModel dx="1566" dy="1254" grid="1" gridSize="10" guides="1" tooltips="1" connect="1" arrows="1" fold="1" page="1" pageScale="1" pageWidth="827" pageHeight="1169" math="1" shadow="0">
      <root>
        <mxCell id="0" />
        <mxCell id="1" parent="0" />
        <mxCell id="TDN-C_YLCCljyXFAm7NU-1" style="rounded=1;orthogonalLoop=1;jettySize=auto;html=1;exitX=0.67;exitY=0;exitDx=0;exitDy=0;exitPerimeter=0;strokeWidth=2;endArrow=classic;endFill=1;curved=0;jumpStyle=gap;entryX=0.33;entryY=0;entryDx=0;entryDy=0;entryPerimeter=0;" edge="1" parent="1" source="TDN-C_YLCCljyXFAm7NU-3" target="TDN-C_YLCCljyXFAm7NU-3">
          <mxGeometry relative="1" as="geometry">
            <mxPoint x="155" y="560" as="targetPoint" />
            <Array as="points">
              <mxPoint x="180" y="560" />
              <mxPoint x="160" y="560" />
              <mxPoint x="140" y="560" />
            </Array>
          </mxGeometry>
        </mxCell>
        <mxCell id="TDN-C_YLCCljyXFAm7NU-2" value="" style="rounded=1;orthogonalLoop=1;jettySize=auto;html=1;strokeWidth=2;endArrow=classic;endFill=1;curved=0;jumpStyle=gap;" edge="1" parent="1" target="TDN-C_YLCCljyXFAm7NU-3">
          <mxGeometry relative="1" as="geometry">
            <mxPoint x="190" y="570" as="targetPoint" />
            <mxPoint x="160" y="460" as="sourcePoint" />
            <Array as="points" />
          </mxGeometry>
        </mxCell>
        <mxCell id="TDN-C_YLCCljyXFAm7NU-3" value="" style="verticalLabelPosition=bottom;verticalAlign=top;html=1;shape=mxgraph.basic.half_circle;fontFamily=Helvetica;fontSize=11;labelBackgroundColor=default;fillColor=#e1d5e7;strokeColor=#9673a6;flipV=1;points=[[0.33,0,0,0,0],[0.5,1,0,0,0],[0.67,0,0,0,0]];" vertex="1" parent="1">
          <mxGeometry x="140" y="500" width="40" height="20" as="geometry" />
        </mxCell>
      </root>
    </mxGraphModel>
  </diagram>
  <diagram id="Qw0Yo2I4TEldy7299oER" name="Page-6">
    <mxGraphModel dx="1566" dy="1254" grid="1" gridSize="10" guides="1" tooltips="1" connect="1" arrows="1" fold="1" page="1" pageScale="1" pageWidth="827" pageHeight="1169" math="1" shadow="0">
      <root>
        <mxCell id="0" />
        <mxCell id="1" parent="0" />
        <mxCell id="wm4yNo7WV1oRQS4pZeP6-1" value="" style="rounded=1;orthogonalLoop=1;jettySize=auto;html=1;strokeWidth=2;endArrow=classic;endFill=1;curved=0;jumpStyle=gap;" edge="1" parent="1" target="wm4yNo7WV1oRQS4pZeP6-4">
          <mxGeometry relative="1" as="geometry">
            <mxPoint x="190" y="570" as="targetPoint" />
            <mxPoint x="160" y="460" as="sourcePoint" />
            <Array as="points" />
          </mxGeometry>
        </mxCell>
        <mxCell id="wm4yNo7WV1oRQS4pZeP6-2" style="edgeStyle=none;shape=connector;curved=0;rounded=1;jumpStyle=gap;orthogonalLoop=1;jettySize=auto;html=1;exitX=0.33;exitY=0;exitDx=0;exitDy=0;exitPerimeter=0;entryX=0.5;entryY=1;entryDx=0;entryDy=0;strokeColor=default;strokeWidth=2;align=center;verticalAlign=middle;fontFamily=Helvetica;fontSize=11;fontColor=default;labelBackgroundColor=default;endArrow=classic;endFill=1;" edge="1" parent="1" source="wm4yNo7WV1oRQS4pZeP6-4" target="wm4yNo7WV1oRQS4pZeP6-5">
          <mxGeometry relative="1" as="geometry">
            <Array as="points">
              <mxPoint x="145" y="530" />
            </Array>
          </mxGeometry>
        </mxCell>
        <mxCell id="wm4yNo7WV1oRQS4pZeP6-3" style="edgeStyle=none;shape=connector;curved=0;rounded=1;jumpStyle=gap;orthogonalLoop=1;jettySize=auto;html=1;exitX=0.67;exitY=0;exitDx=0;exitDy=0;exitPerimeter=0;strokeColor=default;strokeWidth=2;align=center;verticalAlign=middle;fontFamily=Helvetica;fontSize=11;fontColor=default;labelBackgroundColor=default;endArrow=classic;endFill=1;entryX=0.5;entryY=0;entryDx=0;entryDy=0;" edge="1" parent="1" source="wm4yNo7WV1oRQS4pZeP6-4" target="wm4yNo7WV1oRQS4pZeP6-5">
          <mxGeometry relative="1" as="geometry">
            <mxPoint x="190" y="570" as="targetPoint" />
            <Array as="points">
              <mxPoint x="180" y="605" />
              <mxPoint x="145" y="605" />
            </Array>
          </mxGeometry>
        </mxCell>
        <mxCell id="wm4yNo7WV1oRQS4pZeP6-4" value="" style="verticalLabelPosition=bottom;verticalAlign=top;html=1;shape=mxgraph.basic.half_circle;fontFamily=Helvetica;fontSize=11;labelBackgroundColor=default;fillColor=#e1d5e7;strokeColor=#9673a6;flipV=1;points=[[0.33,0,0,0,0],[0.5,1,0,0,0],[0.67,0,0,0,0]];" vertex="1" parent="1">
          <mxGeometry x="140" y="500" width="40" height="20" as="geometry" />
        </mxCell>
        <mxCell id="wm4yNo7WV1oRQS4pZeP6-5" value="" style="shape=trapezoid;perimeter=trapezoidPerimeter;whiteSpace=wrap;html=1;fixedSize=1;align=center;verticalAlign=middle;fontFamily=Helvetica;fontSize=11;labelBackgroundColor=none;autosize=1;resizable=0;fillColor=#b0e3e6;size=10;strokeColor=#0e8088;rotation=-180;flipV=1;" vertex="1" parent="1">
          <mxGeometry x="130" y="550" width="30" height="25" as="geometry" />
        </mxCell>
      </root>
    </mxGraphModel>
  </diagram>
  <diagram id="dV8rp9qPpxVGnJvo0H_I" name="Page-7">
    <mxGraphModel dx="1566" dy="1254" grid="1" gridSize="10" guides="1" tooltips="1" connect="1" arrows="1" fold="1" page="1" pageScale="1" pageWidth="827" pageHeight="1169" math="1" shadow="0">
      <root>
        <mxCell id="0" />
        <mxCell id="1" parent="0" />
        <mxCell id="9X9916YC5bBMaQisAaWn-1" value="" style="rounded=1;orthogonalLoop=1;jettySize=auto;html=1;strokeWidth=2;endArrow=classic;endFill=1;curved=0;jumpStyle=gap;" edge="1" parent="1" target="9X9916YC5bBMaQisAaWn-3">
          <mxGeometry relative="1" as="geometry">
            <mxPoint x="190" y="570" as="targetPoint" />
            <mxPoint x="160" y="460" as="sourcePoint" />
            <Array as="points" />
          </mxGeometry>
        </mxCell>
        <mxCell id="9X9916YC5bBMaQisAaWn-2" style="edgeStyle=none;shape=connector;curved=0;rounded=1;jumpStyle=gap;orthogonalLoop=1;jettySize=auto;html=1;exitX=0.33;exitY=0;exitDx=0;exitDy=0;exitPerimeter=0;entryX=0.5;entryY=1;entryDx=0;entryDy=0;strokeColor=default;strokeWidth=2;align=center;verticalAlign=middle;fontFamily=Helvetica;fontSize=11;fontColor=default;labelBackgroundColor=default;endArrow=classic;endFill=1;" edge="1" parent="1" source="9X9916YC5bBMaQisAaWn-3" target="9X9916YC5bBMaQisAaWn-4">
          <mxGeometry relative="1" as="geometry">
            <Array as="points">
              <mxPoint x="145" y="530" />
            </Array>
          </mxGeometry>
        </mxCell>
        <mxCell id="9X9916YC5bBMaQisAaWn-3" value="" style="verticalLabelPosition=bottom;verticalAlign=top;html=1;shape=mxgraph.basic.half_circle;fontFamily=Helvetica;fontSize=11;labelBackgroundColor=default;fillColor=#e1d5e7;strokeColor=#9673a6;flipV=1;points=[[0.33,0,0,0,0],[0.5,1,0,0,0],[0.67,0,0,0,0]];" vertex="1" parent="1">
          <mxGeometry x="140" y="500" width="40" height="20" as="geometry" />
        </mxCell>
        <mxCell id="9X9916YC5bBMaQisAaWn-4" value="" style="shape=trapezoid;perimeter=trapezoidPerimeter;whiteSpace=wrap;html=1;fixedSize=1;align=center;verticalAlign=middle;fontFamily=Helvetica;fontSize=11;labelBackgroundColor=none;autosize=1;resizable=0;fillColor=#b0e3e6;size=10;strokeColor=#0e8088;rotation=-180;flipV=1;" vertex="1" parent="1">
          <mxGeometry x="130" y="545" width="30" height="25" as="geometry" />
        </mxCell>
        <mxCell id="9X9916YC5bBMaQisAaWn-5" style="edgeStyle=none;shape=connector;curved=0;rounded=1;jumpStyle=gap;orthogonalLoop=1;jettySize=auto;html=1;exitX=0.5;exitY=1;exitDx=0;exitDy=0;exitPerimeter=0;strokeColor=default;strokeWidth=2;align=center;verticalAlign=middle;fontFamily=Helvetica;fontSize=11;fontColor=default;labelBackgroundColor=default;endArrow=none;endFill=0;dashed=1;" edge="1" parent="1" source="9X9916YC5bBMaQisAaWn-6">
          <mxGeometry relative="1" as="geometry">
            <mxPoint x="160.09708737864077" y="650.0000000000001" as="targetPoint" />
          </mxGeometry>
        </mxCell>
        <mxCell id="9X9916YC5bBMaQisAaWn-6" value="" style="verticalLabelPosition=bottom;verticalAlign=top;html=1;shape=mxgraph.basic.half_circle;fontFamily=Helvetica;fontSize=11;labelBackgroundColor=default;fillColor=#e1d5e7;strokeColor=#9673a6;flipV=0;points=[[0.33,0,0,0,0],[0.5,1,0,0,0],[0.67,0,0,0,0]];" vertex="1" parent="1">
          <mxGeometry x="140" y="600" width="40" height="20" as="geometry" />
        </mxCell>
        <mxCell id="9X9916YC5bBMaQisAaWn-7" style="edgeStyle=none;shape=connector;curved=0;rounded=1;jumpStyle=gap;orthogonalLoop=1;jettySize=auto;html=1;exitX=0.5;exitY=0;exitDx=0;exitDy=0;entryX=0.33;entryY=0;entryDx=0;entryDy=0;entryPerimeter=0;strokeColor=default;strokeWidth=2;align=center;verticalAlign=middle;fontFamily=Helvetica;fontSize=11;fontColor=default;labelBackgroundColor=default;endArrow=classic;endFill=1;" edge="1" parent="1" source="9X9916YC5bBMaQisAaWn-4" target="9X9916YC5bBMaQisAaWn-6">
          <mxGeometry relative="1" as="geometry">
            <Array as="points">
              <mxPoint x="145" y="585" />
            </Array>
          </mxGeometry>
        </mxCell>
        <mxCell id="9X9916YC5bBMaQisAaWn-8" style="edgeStyle=none;shape=connector;curved=0;rounded=1;jumpStyle=gap;orthogonalLoop=1;jettySize=auto;html=1;exitX=0.67;exitY=0;exitDx=0;exitDy=0;exitPerimeter=0;entryX=0.67;entryY=0;entryDx=0;entryDy=0;entryPerimeter=0;strokeColor=default;strokeWidth=2;align=center;verticalAlign=middle;fontFamily=Helvetica;fontSize=11;fontColor=default;labelBackgroundColor=default;endArrow=classic;endFill=1;" edge="1" parent="1" source="9X9916YC5bBMaQisAaWn-3" target="9X9916YC5bBMaQisAaWn-6">
          <mxGeometry relative="1" as="geometry">
            <Array as="points" />
          </mxGeometry>
        </mxCell>
      </root>
    </mxGraphModel>
  </diagram>
  <diagram id="M6n-bvADB2EfSS9fZmWd" name="Page-8">
    <mxGraphModel dx="1566" dy="1254" grid="1" gridSize="10" guides="1" tooltips="1" connect="1" arrows="1" fold="1" page="1" pageScale="1" pageWidth="827" pageHeight="1169" math="1" shadow="0">
      <root>
        <mxCell id="0" />
        <mxCell id="1" parent="0" />
        <mxCell id="y5fZqAbwTMOXfuyw-f1--1" style="edgeStyle=none;shape=connector;curved=0;rounded=1;jumpStyle=gap;orthogonalLoop=1;jettySize=auto;html=1;strokeColor=default;strokeWidth=2;align=center;verticalAlign=middle;fontFamily=Helvetica;fontSize=11;fontColor=default;labelBackgroundColor=default;endArrow=none;endFill=0;dashed=1;" edge="1" parent="1">
          <mxGeometry relative="1" as="geometry">
            <mxPoint x="160.09708737864077" y="650.0000000000001" as="targetPoint" />
            <mxPoint x="160" y="555" as="sourcePoint" />
          </mxGeometry>
        </mxCell>
      </root>
    </mxGraphModel>
  </diagram>
</mxfile>
